<svg width="100" height="101" viewBox="0 0 100 101" fill="none" xmlns="http://www.w3.org/2000/svg">
<rect y="0.939941" width="100" height="100" rx="50" fill="#EEF4FF"/>
<path d="M79.8356 28.192C79.5511 27.9703 79.2199 27.8163 78.867 27.7418C78.5141 27.6672 78.1489 27.6739 77.7991 27.7615L59.6511 32.2978L41.4378 23.1896C40.9303 22.9365 40.3491 22.8733 39.7991 23.0115L20.7991 27.7615C20.2853 27.89 19.8291 28.1864 19.5031 28.6039C19.1772 29.0213 19.0001 29.5357 19 30.0653V72.8153C19.0001 73.1762 19.0824 73.5323 19.2406 73.8566C19.3989 74.1809 19.629 74.4649 19.9135 74.687C20.198 74.9091 20.5293 75.0634 20.8823 75.1382C21.2354 75.2131 21.6008 75.2065 21.9509 75.119L40.0989 70.5828L58.3122 79.6909C58.6428 79.8539 59.0064 79.9392 59.375 79.9403C59.5692 79.9402 59.7626 79.9162 59.9509 79.869L78.9509 75.119C79.4647 74.9906 79.9209 74.6941 80.2468 74.2767C80.5728 73.8593 80.7499 73.3449 80.75 72.8153V30.0653C80.7501 29.7041 80.6678 29.3476 80.5093 29.023C80.3509 28.6983 80.1205 28.4141 79.8356 28.192ZM40.375 65.6903C40.1808 65.6904 39.9874 65.7143 39.7991 65.7615L23.75 69.7723V31.9207L40.0989 27.8328L40.375 27.9693V65.6903ZM76 70.9598L59.6511 75.0478L59.375 74.9112V37.1903C59.569 37.1911 59.7625 37.1682 59.9509 37.122L76 33.1082V70.9598Z" fill="#2D76F9"/>
<path d="M59 33.2627C59 32.8045 59.3114 32.405 59.7557 32.293L79.7557 27.2535C80.3873 27.0943 81 27.5718 81 28.2232V74.0473C81 74.5127 80.679 74.9165 80.2257 75.0215L60.2257 79.6559C59.5989 79.8012 59 79.3252 59 78.6817V33.2627Z" fill="#8DB5FC"/>
<path d="M19 28.3637C19 27.9072 19.3092 27.5086 19.7513 27.3951L39.7513 22.2605C40.384 22.0981 41 22.5759 41 23.2291V69.9545C41 70.4183 40.6811 70.8212 40.2298 70.9278L20.2298 75.6496C19.6019 75.7978 19 75.3215 19 74.6764V28.3637Z" fill="#8DB5FC"/>
</svg>
