<svg width="100" height="100" viewBox="0 0 100 100" fill="none" xmlns="http://www.w3.org/2000/svg">
<rect width="100" height="100" rx="50" fill="#EEF4FF"/>
<path d="M41.9565 31C36.9307 31.0057 32.1123 33.0087 28.5585 36.5695C25.0047 40.1303 23.0057 44.9582 23 49.994C23 66.2468 40.2332 78.5216 40.9678 79.0353C41.2575 79.2387 41.6027 79.3478 41.9565 79.3478C42.3103 79.3478 42.6555 79.2387 42.9453 79.0353C43.6798 78.5216 60.913 66.2468 60.913 49.994C60.9073 44.9582 58.9083 40.1303 55.3545 36.5695C51.8007 33.0087 46.9824 31.0057 41.9565 31ZM41.9565 43.0871C43.3199 43.0871 44.6526 43.4922 45.7862 44.2511C46.9198 45.01 47.8033 46.0888 48.3251 47.3508C48.8468 48.6129 48.9833 50.0016 48.7174 51.3414C48.4514 52.6813 47.7948 53.9119 46.8308 54.8779C45.8668 55.8438 44.6385 56.5017 43.3013 56.7682C41.9642 57.0347 40.5782 56.8979 39.3186 56.3751C38.059 55.8524 36.9824 54.9671 36.225 53.8312C35.4675 52.6954 35.0632 51.36 35.0632 49.994C35.0632 48.1622 35.7895 46.4054 37.0822 45.1101C38.375 43.8148 40.1283 43.0871 41.9565 43.0871Z" fill="#BED5FD"/>
<path d="M67.1818 78.1429H55.3789C57.3616 76.3544 59.2314 74.4422 60.9773 72.4174C67.5278 64.8068 71 56.7839 71 49.2143C71 43.5879 68.7875 38.192 64.8492 34.2135C60.911 30.2351 55.5695 28 50 28C44.4305 28 39.089 30.2351 35.1508 34.2135C31.2125 38.192 29 43.5879 29 49.2143C29 56.7839 32.4626 64.8068 39.0227 72.4174C40.7686 74.4422 42.6384 76.3544 44.6211 78.1429H32.8182C32.3119 78.1429 31.8263 78.346 31.4683 78.7077C31.1102 79.0694 30.9091 79.5599 30.9091 80.0714C30.9091 80.5829 31.1102 81.0735 31.4683 81.4351C31.8263 81.7968 32.3119 82 32.8182 82H67.1818C67.6881 82 68.1737 81.7968 68.5317 81.4351C68.8898 81.0735 69.0909 80.5829 69.0909 80.0714C69.0909 79.5599 68.8898 79.0694 68.5317 78.7077C68.1737 78.346 67.6881 78.1429 67.1818 78.1429ZM50 41.5C51.5103 41.5 52.9867 41.9524 54.2425 42.8001C55.4983 43.6477 56.4771 44.8526 57.0551 46.2622C57.6331 47.6718 57.7843 49.2228 57.4896 50.7193C57.195 52.2157 56.4677 53.5902 55.3997 54.6691C54.3318 55.748 52.9711 56.4827 51.4898 56.7803C50.0085 57.078 48.4731 56.9252 47.0777 56.3414C45.6823 55.7575 44.4897 54.7687 43.6506 53.5001C42.8115 52.2315 42.3636 50.74 42.3636 49.2143C42.3636 47.1683 43.1682 45.2062 44.6003 43.7595C46.0324 42.3128 47.9747 41.5 50 41.5Z" fill="#2D76F9"/>
<path d="M56.1304 48.0224C56.1293 46.8122 55.7189 45.6366 54.9636 44.6797C54.2083 43.7228 53.1507 43.0386 51.9565 42.7344L51.9565 26.1879C51.9565 24.7402 52.5429 23.3518 53.5865 22.3281C54.6302 21.3044 56.0458 20.7293 57.5217 20.7293C58.9977 20.7293 60.4133 21.3044 61.4569 22.3281C62.5006 23.3518 63.087 24.7402 63.087 26.1879L63.087 42.5638C63.087 44.3734 63.8199 46.1089 65.1245 47.3886C66.4291 48.6682 68.1985 49.387 70.0435 49.387C71.8885 49.387 73.6579 48.6682 74.9625 47.3886C76.2671 46.1089 77 44.3734 77 42.5638L77 26.1879C77 25.826 76.8534 25.4789 76.5925 25.223C76.3316 24.967 75.9777 24.8233 75.6087 24.8233C75.2397 24.8233 74.8858 24.967 74.6249 25.223C74.364 25.4789 74.2174 25.826 74.2174 26.1879L74.2174 42.5638C74.2174 43.6496 73.7776 44.6909 72.9949 45.4586C72.2121 46.2264 71.1505 46.6577 70.0435 46.6577C68.9365 46.6577 67.8748 46.2264 67.0921 45.4586C66.3093 44.6909 65.8696 43.6496 65.8696 42.5638L65.8696 26.1879C65.8696 24.0164 64.9901 21.9337 63.4245 20.3982C61.859 18.8627 59.7357 18 57.5217 18C55.3078 18 53.1845 18.8627 51.6189 20.3982C50.0534 21.9337 49.1739 24.0164 49.1739 26.1879L49.1739 42.7344C48.1662 42.9896 47.2516 43.5168 46.5341 44.2563C45.8165 44.9957 45.3248 45.9176 45.1146 46.9175C44.9045 47.9173 44.9844 48.9548 45.3452 49.9123C45.7061 50.8698 46.3335 51.7089 47.1561 52.3342C47.9788 52.9595 48.9637 53.3461 49.999 53.4499C51.0344 53.5538 52.0787 53.3708 53.0134 52.9217C53.948 52.4727 54.7356 51.7755 55.2866 50.9095C55.8375 50.0434 56.1299 49.0432 56.1304 48.0224Z" fill="#8DB5FC"/>
</svg>
