<?xml version="1.0" standalone="no"?>
<!DOCTYPE svg PUBLIC "-//W3C//DTD SVG 20010904//EN"
 "http://www.w3.org/TR/2001/REC-SVG-20010904/DTD/svg10.dtd">
<svg version="1.0" xmlns="http://www.w3.org/2000/svg"
 width="1132.000000pt" height="1132.000000pt" viewBox="0 0 1132.000000 1132.000000"
 preserveAspectRatio="xMidYMid meet">
<metadata>
Created by potrace 1.14, written by Peter Selinger 2001-2017
</metadata>
<g transform="translate(0.000000,1132.000000) scale(0.100000,-0.100000)"
fill="#000000" stroke="none">
<path d="M1095 11309 c-56 -13 -145 -51 -145 -61 0 -4 -6 -8 -13 -8 -7 0 -27
-13 -45 -30 -18 -16 -36 -30 -40 -30 -11 -1 -71 -86 -98 -138 -57 -112 -53
298 -51 -5402 l2 -5245 24 -65 c14 -36 28 -67 32 -70 3 -3 13 -18 22 -35 37
-71 145 -157 246 -197 45 -17 78 -22 166 -22 61 -1 123 2 139 6 30 8 158 66
166 77 3 3 23 15 45 26 22 11 42 23 45 26 5 5 108 64 198 114 80 44 137 80
144 90 4 5 8 7 8 2 0 -4 18 4 41 18 22 15 57 36 77 47 20 12 55 32 77 44 72
42 110 62 118 63 4 0 17 10 29 21 12 11 28 20 35 20 7 0 13 5 13 11 0 5 4 8 9
4 5 -3 12 -1 15 4 4 5 40 28 82 51 41 22 116 66 167 97 51 30 98 56 105 56 6
0 12 4 12 9 0 4 7 8 15 8 8 0 15 5 15 10 0 6 7 10 15 10 8 0 15 5 15 10 0 6 4
9 8 8 5 -2 31 11 58 28 27 17 56 34 64 37 8 4 33 18 55 32 22 14 47 28 55 32
14 6 199 114 230 134 8 5 26 15 40 21 14 7 48 27 76 45 29 18 54 29 58 26 3
-4 6 -2 6 4 0 5 25 22 55 38 30 15 55 32 55 38 0 6 3 7 7 4 3 -4 11 -3 17 2 6
5 38 24 71 42 33 18 62 35 65 38 3 3 30 19 60 35 30 17 75 42 99 58 25 15 50
28 57 28 7 0 14 4 16 8 3 10 127 80 143 82 6 1 14 8 18 16 4 8 15 14 22 14 8
0 15 5 15 12 0 6 3 9 6 6 3 -3 60 26 127 66 67 40 129 75 137 79 8 4 33 18 55
32 22 14 47 28 55 32 8 4 43 24 78 45 34 21 67 38 72 38 6 0 10 5 10 11 0 5 5
7 10 4 6 -3 10 -1 10 4 0 6 4 11 9 11 5 0 117 63 250 140 133 77 246 140 251
140 6 0 10 4 10 9 0 5 10 13 22 17 12 3 28 13 36 20 7 8 17 12 22 9 5 -3 10
-1 12 3 2 7 132 83 323 192 17 10 50 29 75 44 25 15 60 33 78 41 17 9 32 20
32 27 0 6 3 8 7 5 3 -4 12 -2 20 4 15 13 82 51 133 77 19 9 44 25 54 34 10 10
23 15 28 12 4 -3 8 -1 8 4 0 5 8 13 18 16 9 3 26 12 37 19 11 6 63 37 115 67
52 30 104 60 115 67 11 7 30 17 42 22 11 5 24 15 28 21 3 5 11 8 16 5 5 -4 9
-2 9 3 0 5 8 12 18 15 22 8 89 46 128 74 17 12 33 20 36 17 3 -2 11 2 18 11 7
8 16 15 20 15 4 0 65 34 135 75 69 41 131 75 136 75 5 0 9 4 9 9 0 5 11 12 25
15 14 4 25 11 25 16 0 6 9 10 20 10 11 0 20 4 20 9 0 5 10 13 22 17 12 3 26
11 32 16 6 5 63 38 126 74 63 36 133 76 155 89 22 12 56 31 75 41 19 11 37 21
40 24 5 5 34 22 80 47 14 8 43 25 65 39 22 13 63 36 90 50 28 15 52 29 55 33
5 6 78 47 117 65 13 6 23 15 23 19 0 5 5 5 10 2 6 -3 10 -1 10 4 0 6 4 11 9
11 8 0 182 98 231 130 8 6 22 13 30 17 8 3 39 21 68 40 29 18 56 33 61 33 5 0
16 6 23 13 7 7 34 23 61 36 26 12 47 28 47 34 0 5 3 8 6 5 3 -4 39 14 80 38
41 24 79 44 84 44 6 0 10 5 10 10 0 6 4 10 9 10 5 0 44 20 85 45 42 25 79 45
83 45 4 0 14 6 22 14 9 7 36 25 61 38 159 89 266 152 272 162 4 6 8 8 8 4 0
-4 21 6 48 22 26 17 59 35 75 41 15 6 27 15 27 21 0 5 4 7 9 4 5 -3 14 1 21 9
7 8 19 15 26 15 8 0 14 5 14 10 0 6 4 10 10 10 5 0 63 31 129 70 66 39 125 70
131 70 5 0 10 4 10 9 0 5 8 11 18 14 17 6 72 37 82 47 6 6 50 31 111 62 24 13
50 29 57 36 7 6 20 12 28 12 8 0 14 4 14 8 0 5 16 14 35 22 19 8 35 17 35 21
0 3 15 12 33 20 17 7 34 16 37 19 3 3 52 32 110 64 203 113 266 164 325 262
50 83 70 155 70 254 0 77 -3 101 -19 165 -14 58 -81 163 -136 213 -36 33 -143
102 -157 102 -7 0 -13 4 -13 9 0 5 -8 11 -17 14 -10 4 -40 20 -68 37 -27 17
-58 33 -67 37 -10 3 -18 9 -18 14 0 5 -9 9 -19 9 -11 0 -21 3 -23 8 -3 7 -125
82 -133 82 -3 0 -38 20 -78 45 -41 25 -80 45 -86 45 -6 0 -11 4 -11 8 0 8 -51
36 -59 32 -2 -1 -7 2 -10 7 -6 8 -91 59 -216 128 -27 16 -52 31 -55 35 -3 4
-16 11 -30 15 -14 4 -27 11 -30 15 -3 4 -54 35 -115 70 -60 34 -136 78 -168
96 -33 19 -63 34 -68 34 -5 0 -9 5 -9 10 0 6 -4 10 -10 10 -5 0 -33 14 -62 31
-72 43 -116 68 -160 91 -21 11 -38 25 -38 31 0 6 -3 8 -6 5 -3 -4 -39 14 -80
38 -41 24 -79 44 -84 44 -6 0 -10 5 -10 10 0 6 -4 10 -10 10 -8 0 -120 62
-180 100 -8 5 -37 21 -65 36 -27 15 -52 29 -55 33 -3 4 -34 22 -70 40 -36 19
-66 38 -68 43 -2 4 -8 8 -12 8 -8 0 -168 89 -230 129 -14 8 -28 14 -32 13 -5
-1 -8 2 -8 8 0 5 -7 10 -15 10 -8 0 -15 5 -15 10 0 6 -9 10 -20 10 -11 0 -20
3 -20 8 0 4 -29 23 -65 41 -36 19 -65 38 -65 43 0 5 -4 6 -10 3 -6 -3 -10 -1
-10 4 0 6 -3 10 -7 9 -9 -3 -99 48 -126 70 -9 8 -17 11 -17 7 0 -4 -8 -1 -18
7 -9 8 -42 28 -72 44 -30 16 -57 32 -60 35 -3 4 -23 16 -45 28 -22 12 -55 30
-72 41 -18 11 -33 16 -33 12 0 -4 -5 1 -11 11 -5 9 -14 17 -20 17 -8 0 -468
263 -539 309 -14 8 -27 16 -30 16 -3 0 -48 26 -100 57 -95 56 -135 79 -220
126 -25 14 -56 32 -70 41 -48 31 -65 41 -95 56 -16 8 -43 23 -60 34 -32 19
-61 36 -160 92 -33 18 -61 37 -63 41 -2 4 -8 8 -14 8 -6 0 -38 17 -72 37 -33
21 -63 38 -66 38 -3 0 -24 13 -47 28 -24 15 -45 27 -48 27 -4 0 -50 26 -130
75 -11 7 -24 12 -29 13 -5 0 -12 4 -15 9 -3 4 -17 14 -30 21 -13 8 -40 23 -60
34 -20 12 -56 32 -81 46 -25 14 -47 28 -50 31 -3 3 -23 15 -45 26 -22 11 -69
37 -104 58 -64 39 -74 45 -186 108 -33 18 -61 37 -63 41 -2 4 -8 8 -13 8 -4 0
-43 20 -85 45 -41 25 -78 45 -80 45 -2 0 -23 11 -45 26 -40 25 -70 42 -159 92
-25 14 -68 40 -97 58 -28 18 -54 30 -57 27 -3 -4 -6 -2 -6 4 0 6 -12 16 -27
22 -16 6 -41 19 -58 30 -29 18 -117 69 -203 118 -23 13 -93 53 -154 89 -61 35
-115 64 -119 64 -5 0 -9 5 -9 10 0 6 -4 10 -10 10 -5 0 -47 23 -94 50 -47 28
-89 50 -95 50 -6 0 -11 3 -11 8 0 4 -21 18 -47 31 -27 14 -56 31 -66 39 -9 9
-17 12 -17 8 0 -4 -6 -2 -12 4 -20 16 -199 120 -208 120 -5 0 -15 6 -22 13 -7
7 -42 29 -78 48 -36 18 -67 37 -70 40 -3 3 -52 32 -110 64 -58 32 -108 63
-111 68 -3 5 -9 7 -12 5 -4 -1 -15 4 -25 12 -10 8 -25 16 -33 18 -8 2 -15 8
-17 13 -2 5 -8 9 -13 9 -5 0 -26 11 -47 23 -20 13 -58 35 -83 49 -80 45 -94
53 -99 58 -3 3 -21 13 -40 22 -19 10 -64 36 -100 58 -36 21 -85 50 -110 63
-25 13 -91 52 -148 85 -57 34 -105 62 -107 62 -1 0 -44 25 -94 55 -51 30 -93
55 -95 55 -2 0 -61 34 -132 75 -71 42 -154 85 -184 96 -63 24 -212 34 -275 18z"/>
</g>
</svg>
